<svg width="1263" height="284" viewBox="0 0 1263 284" fill="none" xmlns="http://www.w3.org/2000/svg">
<path d="M462.041 198.038H478.041V178.038H464.241C451.641 178.038 446.041 173.438 446.041 163.438V115.638H478.041V96.038H446.041V54.038H425.041V96.038H406.041V115.638H425.041V163.438C425.041 185.838 438.241 198.038 462.041 198.038Z" fill="black"/>
<path d="M542.896 200.638C556.896 200.638 568.696 195.438 577.296 186.838V198.038H598.296V96.038H577.296V107.238C568.696 98.6381 556.896 93.4381 542.896 93.4381C513.096 93.4381 490.096 116.638 490.096 147.038C490.096 177.438 513.096 200.638 542.896 200.638ZM544.696 180.238C525.896 180.238 512.096 166.438 512.096 147.038C512.096 127.638 525.896 113.838 544.696 113.838C563.896 113.838 577.496 127.838 577.496 147.038C577.496 166.238 563.896 180.238 544.696 180.238Z" fill="black"/>
<path d="M618.268 198.038H639.268V145.038C639.268 127.438 652.268 115.638 671.268 115.638H679.668V96.038H671.268C656.668 96.038 646.868 100.238 639.268 109.838V96.038H618.268V198.038Z" fill="black"/>
<path d="M736.858 200.638C750.858 200.638 762.658 195.438 771.258 186.838V198.038H792.258V96.038H771.258V107.238C762.658 98.6381 750.858 93.4381 736.858 93.4381C707.058 93.4381 684.058 116.638 684.058 147.038C684.058 177.438 707.058 200.638 736.858 200.638ZM738.658 180.238C719.858 180.238 706.058 166.438 706.058 147.038C706.058 127.638 719.858 113.838 738.658 113.838C757.858 113.838 771.458 127.838 771.458 147.038C771.458 166.238 757.858 180.238 738.658 180.238Z" fill="black"/>
<path d="M812.23 198.038H833.23V140.038C833.23 125.638 845.23 113.838 861.03 113.838C876.03 113.838 886.03 124.238 886.03 140.838V198.038H907.03V140.238C907.03 112.238 889.83 93.4381 864.43 93.4381C850.63 93.4381 840.23 98.838 833.23 106.238V96.038H812.23V198.038Z" fill="black"/>
<path d="M972.613 198.038H988.613V178.038H974.813C962.213 178.038 956.613 173.438 956.613 163.438V115.638H988.613V96.038H956.613V54.038H935.613V96.038H916.613V115.638H935.613V163.438C935.613 185.838 948.813 198.038 972.613 198.038Z" fill="black"/>
<path d="M1050.84 200.638C1081.24 200.638 1105.44 177.038 1105.44 147.038C1105.44 117.038 1081.24 93.438 1050.84 93.438C1020.44 93.438 996.236 117.038 996.236 147.038C996.236 177.038 1020.44 200.638 1050.84 200.638ZM1050.84 180.238C1032.04 180.238 1018.24 166.238 1018.24 147.038C1018.24 127.838 1032.04 113.838 1050.84 113.838C1069.64 113.838 1083.44 127.838 1083.44 147.038C1083.44 166.238 1069.64 180.238 1050.84 180.238Z" fill="black"/>
<path d="M1172.12 200.638C1202.52 200.638 1226.73 177.038 1226.73 147.038C1226.73 117.038 1202.52 93.438 1172.12 93.438C1141.72 93.438 1117.52 117.038 1117.52 147.038C1117.52 177.038 1141.72 200.638 1172.12 200.638ZM1172.12 180.238C1153.32 180.238 1139.52 166.238 1139.52 147.038C1139.52 127.838 1153.32 113.838 1172.12 113.838C1190.92 113.838 1204.73 127.838 1204.73 147.038C1204.73 166.238 1190.92 180.238 1172.12 180.238Z" fill="black"/>
<path d="M1241.81 198.038H1262.81V54.038H1241.81V198.038Z" fill="black"/>
<path fill-rule="evenodd" clip-rule="evenodd" d="M177.876 40.9088C185.298 45.7498 198.405 57.0946 212.473 71.1626C226.269 84.9586 237.446 97.8305 242.439 105.323C257.357 127.113 257.467 156.029 242.766 177.93C237.942 185.345 226.575 198.482 212.473 212.584C198.37 226.687 185.233 238.054 177.818 242.878C155.902 257.589 126.96 257.469 105.164 242.518C97.6649 237.51 84.8184 226.351 71.0514 212.584C57.0118 198.544 45.6844 185.462 40.8271 178.032C26.5068 156.761 26.1841 128.839 39.857 107.262C44.0332 100.202 55.9802 86.2341 71.0514 71.1629C86.1223 56.092 100.09 44.1449 107.151 39.9684C128.713 26.305 156.61 26.618 177.876 40.9088Z" fill="url(#paint0_radial)"/>
<path fill-rule="evenodd" clip-rule="evenodd" d="M273.817 61.1016C279.754 64.9744 290.24 74.0503 301.494 85.3047C312.531 96.3415 321.473 106.639 325.467 112.633C337.402 130.065 337.49 153.198 325.729 170.719C321.87 176.65 312.776 187.16 301.494 198.442C290.212 209.724 279.702 218.818 273.771 222.677C256.238 234.446 233.084 234.35 215.647 222.389C209.648 218.383 199.371 209.455 188.357 198.442C177.125 187.21 168.064 176.744 164.178 170.8C152.721 153.783 152.463 131.446 163.402 114.184C166.743 108.536 176.3 97.3619 188.357 85.3049C200.414 73.2482 211.588 63.6905 217.236 60.3493C234.486 49.4186 256.804 49.669 273.817 61.1016Z" fill="url(#paint1_radial)"/>
<path fill-rule="evenodd" clip-rule="evenodd" d="M208.245 66.9877C209.641 68.349 211.052 69.7419 212.472 71.1626C226.269 84.9586 237.446 97.8305 242.439 105.323C257.357 127.113 257.467 156.029 242.766 177.93C237.942 185.345 226.575 198.482 212.472 212.584C211.052 214.005 209.641 215.397 208.245 216.758C202.625 212.118 195.653 205.737 188.357 198.442C177.125 187.21 168.064 176.744 164.178 170.8C152.721 153.783 152.463 131.446 163.402 114.184C166.743 108.536 176.3 97.3619 188.357 85.3049C195.652 78.0098 202.624 71.6296 208.245 66.9877Z" fill="#FF0D2A"/>
<defs>
<radialGradient id="paint0_radial" cx="0" cy="0" r="1" gradientUnits="userSpaceOnUse" gradientTransform="translate(255.392 147.297) rotate(180) scale(227.016)">
<stop offset="0.373134" stop-color="#FF0D0D" stop-opacity="0.51"/>
<stop offset="1" stop-color="#FF0D2A"/>
</radialGradient>
<radialGradient id="paint1_radial" cx="0" cy="0" r="1" gradientUnits="userSpaceOnUse" gradientTransform="translate(167.614 141.435) scale(166.355)">
<stop offset="0.329713" stop-color="#FF0000" stop-opacity="0.38"/>
<stop offset="1" stop-color="#FF001F" stop-opacity="0.88"/>
</radialGradient>
</defs>
</svg>
